<svg width="24" height="20" viewBox="0 0 24 20" fill="none" xmlns="http://www.w3.org/2000/svg">
<g id="Property 1=eye-password-hide-svgrepo-com 1">
<path id="Vector" d="M2 4L22 19" stroke="black" stroke-opacity="0.9" stroke-width="2" stroke-linecap="round" stroke-linejoin="round"/>
<path id="Vector_2" d="M6.71277 7.47651C3.66479 9.25309 2 12 2 12C2 12 5.63636 18 12 18C14.0503 18 15.8174 17.3772 17.2711 16.5329M11 6.0499C11.3254 6.01725 11.6588 6 12 6C18.3636 6 22 12 22 12C22 12 21.3082 13.1415 20 14.4287" stroke="black" stroke-opacity="0.9" stroke-width="2" stroke-linecap="round" stroke-linejoin="round"/>
<path id="Vector_3" d="M14.0455 13.2596C13.5099 13.6157 12.8027 13.8323 12.0273 13.8323C10.3553 13.8323 9 12.8254 9 11.5833C9 10.9658 9.33495 10.4064 9.87724 10" stroke="rgba(0, 117, 125, 0.70)" stroke-opacity="0.9" stroke-width="2" stroke-linecap="round" stroke-linejoin="round"/>
</g>
</svg>
